<?xml version="1.0" standalone="no"?>
<!DOCTYPE svg PUBLIC "-//W3C//DTD SVG 20010904//EN"
 "http://www.w3.org/TR/2001/REC-SVG-20010904/DTD/svg10.dtd">
<svg version="1.0" xmlns="http://www.w3.org/2000/svg"
 width="358.000000pt" height="328.000000pt" viewBox="0 0 358.000000 328.000000"
 preserveAspectRatio="xMidYMid meet">

<g transform="translate(0.000000,328.000000) scale(0.100000,-0.100000)"
fill="#000000" stroke="none">
<path d="M0 1635 l0 -1635 1790 0 1790 0 0 1635 0 1635 -1790 0 -1790 0 0
-1635z m1460 1535 c0 -73 -3 -90 -15 -90 -12 0 -15 17 -15 90 0 73 3 90 15 90
12 0 15 -17 15 -90z m80 25 c0 -58 -2 -65 -20 -65 -18 0 -20 7 -20 65 0 58 2
65 20 65 18 0 20 -7 20 -65z m100 -95 c0 -153 1 -160 20 -160 19 0 20 7 20
160 0 136 2 160 15 160 13 0 15 -27 15 -180 0 -173 1 -180 20 -180 19 0 20 7
20 180 0 173 1 180 20 180 19 0 20 -7 20 -185 0 -158 2 -185 15 -185 13 0 15
27 15 185 l0 185 35 0 c19 0 35 -4 35 -10 0 -5 -7 -10 -15 -10 -13 0 -15 -23
-15 -150 0 -127 2 -150 15 -150 12 0 15 19 15 110 0 103 1 110 20 110 19 0 20
-7 20 -105 0 -87 3 -105 15 -105 8 0 15 5 15 10 0 6 9 10 20 10 17 0 20 7 20
40 0 33 3 40 20 40 19 0 20 -7 20 -105 0 -87 3 -105 15 -105 12 0 15 14 15 65
0 58 2 65 20 65 17 0 20 -7 20 -50 0 -38 4 -50 15 -50 8 0 15 5 15 10 0 6 9
10 20 10 15 0 20 7 20 25 0 16 6 25 15 25 9 0 15 -9 15 -25 0 -18 5 -25 20
-25 16 0 20 7 20 30 0 23 4 30 20 30 18 0 20 -7 20 -55 0 -42 3 -55 15 -55 12
0 15 13 15 55 0 48 2 55 20 55 18 0 20 -7 20 -55 0 -42 3 -55 15 -55 11 0 15
12 15 50 0 43 3 50 20 50 18 0 20 -7 20 -65 0 -51 3 -65 15 -65 12 0 15 14 15
70 0 63 2 70 20 70 17 0 20 -7 20 -40 0 -33 3 -40 20 -40 19 0 20 7 20 115 0
108 -1 115 -20 115 -13 0 -20 7 -20 20 0 13 -7 20 -20 20 -17 0 -20 -7 -20
-40 0 -29 -4 -40 -15 -40 -12 0 -15 14 -15 65 0 58 -2 65 -20 65 -18 0 -20 -7
-20 -55 0 -42 -3 -55 -15 -55 -11 0 -15 12 -15 49 0 45 -2 49 -27 54 -16 3
-40 3 -55 0 -27 -5 -28 -4 -28 36 l0 41 230 0 230 0 0 -40 c0 -33 3 -40 20
-40 16 0 20 -7 20 -35 0 -28 4 -35 20 -35 18 0 20 7 20 75 l0 75 160 0 160 0
0 -40 c0 -33 -3 -40 -20 -40 -17 0 -20 -7 -20 -50 0 -38 -4 -50 -15 -50 -12 0
-15 -14 -15 -70 0 -56 3 -70 15 -70 10 0 15 -11 15 -35 0 -28 4 -35 20 -35 15
0 20 -7 20 -25 0 -16 6 -25 15 -25 8 0 15 -9 15 -20 0 -16 7 -20 35 -20 28 0
35 4 35 20 0 13 7 20 20 20 13 0 20 7 20 19 0 14 10 21 35 25 19 4 35 11 35
15 0 5 39 11 87 13 54 3 88 9 91 16 2 7 19 12 38 12 l34 0 0 -210 0 -210 -127
-2 -128 -2 128 -3 c104 -3 127 -6 127 -18 0 -14 -60 -22 -135 -17 -11 0 -69 1
-130 2 -74 2 -136 9 -189 23 -77 20 -80 20 -148 3 -45 -12 -73 -15 -77 -8 -15
25 -312 73 -319 52 -2 -6 -10 -10 -18 -10 -8 0 -14 -4 -14 -10 0 -5 -18 -10
-40 -10 -22 0 -40 5 -40 10 0 6 -7 10 -15 10 -8 0 -15 5 -15 10 0 6 -9 10 -20
10 -13 0 -20 7 -20 20 0 11 -7 20 -15 20 -8 0 -15 9 -15 20 0 13 -7 20 -20 20
-12 0 -20 7 -20 16 0 15 -10 16 -82 10 -100 -8 -128 -14 -128 -31 0 -7 -16
-16 -36 -20 -48 -8 -114 3 -114 20 0 8 -22 18 -54 26 -47 10 -64 9 -113 -4
-44 -13 -79 -15 -141 -10 l-82 6 0 -32 c0 -24 4 -31 20 -31 11 0 20 -4 20 -10
0 -5 7 -10 15 -10 8 0 15 -4 15 -10 0 -5 9 -10 20 -10 11 0 20 -7 20 -15 0 -8
6 -15 14 -15 8 0 16 -6 19 -12 2 -9 26 -13 75 -12 40 0 72 -4 72 -8 0 -4 7 -8
15 -8 8 0 15 -7 15 -15 0 -8 9 -15 20 -15 11 0 20 -4 20 -10 0 -5 7 -10 15
-10 8 0 15 -6 15 -14 0 -7 14 -16 31 -20 49 -10 149 -7 149 4 0 6 9 10 19 10
11 0 21 4 23 10 2 5 18 12 36 16 l32 7 0 -82 0 -81 35 0 c19 0 35 5 35 10 0 6
16 10 35 10 28 0 35 -4 35 -19 0 -22 37 -32 87 -24 18 3 54 0 80 -8 36 -10 48
-10 51 -1 2 7 10 12 18 12 8 0 14 7 14 15 0 8 9 15 20 15 11 0 20 5 20 10 0 6
25 10 55 10 30 0 55 -4 55 -10 0 -15 148 -12 210 5 37 10 75 13 117 9 42 -4
85 -1 130 10 38 8 125 17 196 18 115 3 127 1 127 -14 0 -16 -11 -18 -90 -18
-53 0 -90 4 -90 10 0 6 -7 10 -15 10 -8 0 -15 -4 -15 -10 0 -5 -9 -10 -20 -10
-11 0 -20 -5 -20 -11 0 -7 23 -10 68 -9 37 2 93 2 125 1 l57 -1 0 -262 0 -261
-127 5 c-71 3 -117 2 -103 -2 14 -5 71 -8 128 -9 84 -1 102 -4 102 -16 0 -12
-20 -15 -117 -15 -64 0 -165 4 -223 10 -133 12 -421 33 -480 35 -25 1 -66 7
-92 14 -43 12 -48 16 -48 42 0 22 -5 29 -20 29 -11 0 -20 -4 -20 -10 0 -5 -7
-10 -15 -10 -8 0 -15 -4 -15 -10 0 -5 -9 -10 -20 -10 -11 0 -20 -7 -20 -15 0
-12 -14 -15 -70 -15 -40 0 -70 4 -70 10 0 6 -9 10 -20 10 -16 0 -20 7 -20 35
0 28 4 35 20 35 18 0 20 7 20 63 l0 64 -55 13 c-42 10 -55 18 -55 32 0 10 -3
18 -7 18 -44 1 -199 32 -201 40 -2 5 -12 10 -23 10 -16 0 -19 7 -19 40 0 33
-3 40 -20 40 -11 0 -20 5 -20 10 0 6 -16 10 -35 10 -19 0 -35 5 -35 10 0 6
-22 10 -50 10 -27 0 -50 5 -50 10 0 6 -9 10 -20 10 -15 0 -20 7 -20 25 0 18
-5 25 -19 25 -11 0 -21 5 -23 11 -2 6 -40 15 -83 20 -44 4 -81 8 -82 8 -2 1
-3 10 -3 21 0 17 -7 20 -40 20 l-40 0 0 -40 c0 -33 3 -40 20 -40 13 0 20 -7
20 -20 0 -13 7 -20 20 -20 11 0 20 -4 20 -10 0 -5 7 -10 15 -10 12 0 15 -13
15 -55 l0 -55 -35 0 c-19 0 -35 5 -35 10 0 6 -9 10 -20 10 -13 0 -20 7 -20 20
0 11 -6 20 -14 20 -8 0 -16 5 -18 11 -6 17 -108 -10 -108 -28 0 -7 -7 -13 -15
-13 -8 0 -15 -9 -15 -20 0 -13 -7 -20 -20 -20 -11 0 -20 -6 -20 -14 0 -8 -15
-17 -35 -20 -26 -5 -35 -12 -35 -26 0 -13 -7 -20 -20 -20 -15 0 -20 -7 -20
-25 0 -16 -6 -25 -15 -25 -9 0 -15 -9 -15 -25 0 -18 -5 -25 -20 -25 -13 0 -20
-7 -20 -20 0 -11 -7 -20 -15 -20 -8 0 -15 -9 -15 -20 0 -13 -7 -20 -20 -20
-11 0 -20 -6 -20 -13 0 -20 -114 -46 -256 -57 -71 -6 -194 -20 -274 -31 -150
-20 -187 -23 -178 -14 6 7 99 24 188 35 91 11 185 29 212 40 20 7 18 9 -17 9
-22 1 -67 -4 -100 -10 -181 -31 -237 -36 -397 -31 l-168 4 0 104 c0 86 3 104
15 104 8 0 15 5 15 10 0 6 7 10 15 10 8 0 15 -4 15 -10 0 -14 37 -13 42 1 3 8
16 8 47 -1 31 -8 46 -8 50 -1 10 16 111 2 111 -15 0 -8 9 -14 20 -14 11 0 20
5 20 10 0 6 16 10 35 10 24 0 35 -5 35 -15 0 -8 7 -15 15 -15 8 0 15 9 15 20
0 22 35 29 42 9 5 -14 68 -2 68 12 0 5 9 9 20 9 16 0 20 -7 20 -30 0 -20 5
-30 15 -30 10 0 15 11 15 35 0 28 4 35 19 35 11 0 21 -4 23 -10 2 -5 18 -12
36 -16 30 -6 32 -5 32 20 0 19 5 26 20 26 11 0 20 -4 20 -10 0 -5 7 -10 15
-10 8 0 15 5 15 10 0 6 9 10 20 10 11 0 20 7 20 15 0 8 7 15 15 15 8 0 15 -9
15 -20 0 -13 7 -20 20 -20 15 0 20 7 20 25 0 16 6 25 15 25 8 0 15 -4 15 -10
0 -5 9 -10 20 -10 11 0 20 5 20 10 0 6 -9 10 -20 10 -16 0 -20 7 -20 30 0 23
4 30 20 30 11 0 20 5 20 10 0 6 -9 10 -20 10 -18 0 -20 7 -20 75 0 68 2 75 20
75 11 0 20 5 20 10 0 6 -9 10 -20 10 -16 0 -20 7 -20 30 0 23 4 30 20 30 11 0
20 5 20 10 0 6 -9 10 -20 10 -19 0 -20 7 -20 111 l0 111 40 -7 c33 -6 40 -4
40 9 0 9 -8 16 -20 16 -28 0 -25 20 3 21 l22 2 -22 4 c-13 2 -23 11 -23 19 0
8 -9 14 -20 14 -16 0 -20 7 -20 35 0 34 1 35 40 35 33 0 40 3 40 20 0 11 7 20
15 20 8 0 15 5 15 10 0 6 9 10 20 10 11 0 20 7 20 15 0 8 7 15 15 15 9 0 15 9
15 25 0 18 5 25 20 25 11 0 20 -4 20 -10 0 -5 7 -10 15 -10 11 0 15 12 15 50
0 43 3 50 20 50 17 0 20 -7 20 -40 0 -33 3 -40 20 -40 18 0 20 7 20 55 0 42 3
55 15 55 12 0 15 -13 15 -55 0 -48 2 -55 20 -55 18 0 20 7 20 80 0 64 3 80 15
80 12 0 15 -17 15 -90 0 -83 1 -90 20 -90 16 0 20 7 20 35 0 24 5 35 15 35 10
0 15 -11 15 -35 0 -28 4 -35 20 -35 11 0 20 -7 20 -15 0 -8 9 -15 20 -15 18 0
20 7 20 80 0 64 3 80 15 80 12 0 15 -16 15 -80 0 -73 2 -80 20 -80 19 0 20 7
20 155 0 148 -1 155 -20 155 -17 0 -20 7 -20 40 0 39 1 40 35 40 l35 0 0 -160z
m320 140 c0 -11 -7 -20 -15 -20 -8 0 -15 9 -15 20 0 11 7 20 15 20 8 0 15 -9
15 -20z m80 0 c0 -13 -7 -20 -20 -20 -13 0 -20 7 -20 20 0 13 7 20 20 20 13 0
20 -7 20 -20z m70 10 c0 -5 -9 -10 -20 -10 -11 0 -20 5 -20 10 0 6 9 10 20 10
11 0 20 -4 20 -10z m100 -15 c0 -16 -6 -25 -15 -25 -9 0 -15 9 -15 25 0 16 6
25 15 25 9 0 15 -9 15 -25z m-530 -1095 c0 -5 7 -10 15 -10 12 0 15 -16 15
-80 l0 -80 -35 0 c-24 0 -35 5 -35 15 0 8 -7 15 -15 15 -12 0 -15 14 -15 69 0
58 3 70 18 74 31 8 52 7 52 -3z m188 -126 c13 -4 22 -14 22 -25 0 -12 7 -19
20 -19 16 0 20 -7 20 -30 0 -20 5 -30 15 -30 12 0 15 -16 15 -80 l0 -80 -35 0
c-19 0 -35 4 -35 10 0 5 -16 12 -35 16 -19 3 -35 10 -35 15 0 5 -7 9 -15 9
-12 0 -15 18 -15 100 0 82 3 100 15 100 8 0 15 5 15 10 0 11 15 12 48 4z m342
-204 c0 -5 9 -10 20 -10 11 0 20 -7 20 -15 0 -8 9 -15 20 -15 19 0 20 -7 20
-125 0 -118 -1 -125 -20 -125 -13 0 -20 -7 -20 -18 0 -13 -13 -22 -50 -31 -58
-15 -130 -7 -130 15 0 9 -12 14 -35 14 l-35 0 0 140 0 140 35 0 c24 0 35 5 35
14 0 16 24 23 93 25 26 0 47 -3 47 -9z m-2047 -47 c-29 -2 -77 -2 -105 0 -29
2 -6 3 52 3 58 0 81 -1 53 -3z m0 -40 c-29 -2 -77 -2 -105 0 -29 2 -6 3 52 3
58 0 81 -1 53 -3z m1547 -18 c0 -8 9 -15 20 -15 17 0 20 -7 20 -50 0 -43 -3
-50 -20 -50 -11 0 -20 -7 -20 -15 0 -8 -7 -15 -15 -15 -9 0 -15 9 -15 25 0 18
-5 25 -20 25 -16 0 -20 7 -20 30 0 23 4 30 20 30 15 0 20 7 20 25 0 16 6 25
15 25 8 0 15 -7 15 -15z m1860 -150 c0 -12 -18 -15 -102 -16 -57 -1 -114 -4
-128 -9 -14 -4 32 -5 103 -2 l127 5 0 -261 0 -262 -57 -2 -58 -2 58 -3 c49 -3
57 -7 57 -23 0 -19 -8 -20 -131 -20 -88 0 -151 5 -193 16 -42 11 -81 14 -126
10 -44 -4 -83 -1 -120 9 -63 17 -179 20 -230 5 -36 -11 -130 5 -130 22 0 4 -7
8 -15 8 -8 0 -15 7 -15 16 0 13 -7 15 -31 10 -17 -3 -67 -6 -110 -6 -78 0 -79
0 -79 -25 0 -22 -4 -25 -35 -25 -19 0 -35 5 -35 10 0 6 -16 10 -35 10 l-35 0
0 -81 0 -82 -32 7 c-18 4 -34 11 -36 16 -2 6 -12 10 -23 10 -10 0 -19 7 -19
15 0 11 -11 15 -39 15 -59 0 -141 -21 -141 -37 0 -7 -7 -13 -15 -13 -8 0 -15
-4 -15 -10 0 -5 -9 -10 -20 -10 -11 0 -20 -7 -20 -15 0 -8 -7 -15 -15 -15 -8
0 -15 -4 -15 -8 0 -4 -32 -8 -72 -8 -49 1 -73 -3 -75 -11 -3 -7 -11 -13 -19
-13 -8 0 -14 -7 -14 -15 0 -8 -9 -15 -20 -15 -11 0 -20 -4 -20 -10 0 -5 -7
-10 -15 -10 -8 0 -15 -4 -15 -10 0 -5 -9 -10 -20 -10 -14 0 -20 -7 -20 -24 0
-19 7 -25 35 -30 20 -4 56 -4 80 -1 28 5 63 1 101 -10 59 -17 144 -14 144 6 0
5 7 9 15 9 8 0 15 5 15 10 0 6 9 10 20 10 11 0 20 5 20 10 0 6 16 10 35 10 19
0 35 -4 35 -10 0 -5 9 -10 20 -10 11 0 20 -4 20 -10 0 -5 6 -10 14 -10 8 0 16
-4 18 -10 2 -5 42 -13 91 -16 77 -6 87 -5 87 10 0 9 8 16 20 16 13 0 20 7 20
20 0 11 7 20 15 20 8 0 15 9 15 20 0 13 7 20 20 20 11 0 20 5 20 10 0 6 7 10
15 10 8 0 15 5 15 10 0 15 78 12 83 -2 10 -32 326 0 349 35 4 7 19 7 46 -1 54
-16 147 -15 206 3 27 8 72 15 100 14 28 -1 113 2 189 6 136 8 137 8 137 -14 0
-20 -4 -21 -142 -23 l-143 -2 143 -3 142 -4 0 -209 0 -210 -34 0 c-19 0 -36 5
-38 12 -3 7 -37 13 -91 16 -48 2 -87 8 -87 13 0 5 -7 9 -15 9 -8 0 -15 5 -15
10 0 6 -9 10 -20 10 -11 0 -20 7 -20 15 0 8 -9 15 -20 15 -13 0 -20 7 -20 20
0 16 -7 20 -35 20 -28 0 -35 -4 -35 -20 0 -11 -7 -20 -15 -20 -9 0 -15 -9 -15
-25 0 -18 -5 -25 -20 -25 -16 0 -20 -7 -20 -30 0 -20 -5 -30 -15 -30 -12 0
-15 -15 -15 -75 0 -60 3 -75 15 -75 11 0 15 -12 15 -45 0 -38 3 -45 20 -45 17
0 20 -7 20 -40 0 -29 4 -40 15 -40 8 0 15 -4 15 -10 0 -6 -65 -10 -175 -10
l-175 0 0 80 c0 73 -2 80 -20 80 -16 0 -20 -7 -20 -30 0 -23 -4 -30 -20 -30
-17 0 -20 -7 -20 -40 0 -29 -4 -40 -15 -40 -8 0 -15 -4 -15 -10 0 -6 -97 -10
-270 -10 -173 0 -270 4 -270 10 0 6 9 10 20 10 13 0 20 7 20 20 0 11 7 20 15
20 8 0 15 -9 15 -20 0 -13 7 -20 20 -20 17 0 20 7 20 40 0 33 3 40 20 40 11 0
20 -4 20 -10 0 -5 7 -10 15 -10 8 0 15 5 15 10 0 6 9 10 20 10 17 0 20 7 20
45 0 33 4 45 15 45 12 0 15 -13 15 -55 0 -48 2 -55 20 -55 18 0 20 7 20 65 0
51 3 65 15 65 11 0 15 -11 15 -40 0 -33 3 -40 20 -40 15 0 20 7 20 25 0 18 5
25 20 25 19 0 20 7 20 110 0 103 -1 110 -20 110 -17 0 -20 -7 -20 -40 0 -33
-3 -40 -20 -40 -18 0 -20 7 -20 70 0 56 -3 70 -15 70 -12 0 -15 -13 -15 -60 0
-53 -2 -60 -20 -60 -17 0 -20 7 -20 45 0 33 -4 45 -15 45 -12 0 -15 -13 -15
-55 0 -48 -2 -55 -20 -55 -18 0 -20 7 -20 55 0 42 -3 55 -15 55 -12 0 -15 -13
-15 -55 0 -48 -2 -55 -20 -55 -16 0 -20 7 -20 30 0 23 -4 30 -20 30 -13 0 -20
-7 -20 -20 0 -11 -7 -20 -15 -20 -8 0 -15 9 -15 20 0 13 -7 20 -20 20 -11 0
-20 5 -20 10 0 6 -7 10 -15 10 -11 0 -15 -12 -15 -50 0 -43 -3 -50 -20 -50
-18 0 -20 7 -20 65 0 51 -3 65 -15 65 -12 0 -15 -18 -15 -105 0 -98 -1 -105
-20 -105 -17 0 -20 7 -20 40 0 33 -3 40 -20 40 -11 0 -20 5 -20 10 0 6 -7 10
-15 10 -12 0 -15 -18 -15 -105 0 -98 -1 -105 -20 -105 -19 0 -20 7 -20 115 0
96 -3 115 -15 115 -13 0 -15 -24 -15 -155 0 -131 2 -155 15 -155 8 0 15 -7 15
-15 0 -10 -11 -15 -35 -15 l-35 0 0 190 c0 162 -2 190 -15 190 -13 0 -15 -28
-15 -190 0 -183 -1 -190 -20 -190 -19 0 -20 7 -20 185 0 178 -1 185 -20 185
-19 0 -20 -7 -20 -185 0 -158 -2 -185 -15 -185 -13 0 -15 26 -15 170 0 163 -1
170 -20 170 -19 0 -20 -7 -20 -170 l0 -170 -35 0 -35 0 0 50 c0 43 3 50 20 50
19 0 20 7 20 150 0 143 -1 150 -20 150 -18 0 -20 -7 -20 -80 0 -64 -3 -80 -15
-80 -12 0 -15 16 -15 80 0 73 -2 80 -20 80 -11 0 -20 -7 -20 -15 0 -8 -9 -15
-20 -15 -16 0 -20 -7 -20 -35 0 -24 -5 -35 -15 -35 -10 0 -15 11 -15 35 0 28
-4 35 -20 35 -19 0 -20 -7 -20 -90 0 -73 -3 -90 -15 -90 -12 0 -15 16 -15 80
0 73 -2 80 -20 80 -18 0 -20 -7 -20 -55 0 -42 -3 -55 -15 -55 -12 0 -15 13
-15 55 0 48 -2 55 -20 55 -17 0 -20 -7 -20 -40 0 -33 -3 -40 -20 -40 -17 0
-20 7 -20 50 0 38 -4 50 -15 50 -8 0 -15 -4 -15 -10 0 -5 -9 -10 -20 -10 -15
0 -20 7 -20 25 0 16 -6 25 -15 25 -8 0 -15 7 -15 15 0 8 -9 15 -20 15 -11 0
-20 5 -20 10 0 6 -7 10 -15 10 -8 0 -15 9 -15 20 0 17 -7 20 -40 20 -39 0 -40
1 -40 35 0 28 4 35 20 35 11 0 20 7 20 15 0 8 9 15 20 15 28 0 25 20 -2 21
l-23 2 23 4 c40 8 26 33 -18 33 l-40 0 0 105 c0 98 1 105 20 105 11 0 20 5 20
10 0 6 -9 10 -20 10 -16 0 -20 7 -20 30 0 23 4 30 20 30 11 0 20 5 20 10 0 6
-9 10 -20 10 -18 0 -20 7 -20 75 0 68 2 75 20 75 11 0 20 5 20 10 0 6 -9 10
-20 10 -16 0 -20 7 -20 30 0 23 4 30 20 30 11 0 20 5 20 10 0 6 -9 10 -20 10
-11 0 -20 -4 -20 -10 0 -5 -7 -10 -15 -10 -9 0 -15 9 -15 25 0 18 -5 25 -20
25 -11 0 -20 -7 -20 -15 0 -8 -7 -15 -15 -15 -8 0 -15 5 -15 10 0 6 -9 10 -20
10 -11 0 -20 5 -20 10 0 6 -7 10 -15 10 -8 0 -15 -4 -15 -10 0 -5 -9 -10 -20
-10 -15 0 -20 7 -20 26 0 25 -2 26 -32 20 -18 -4 -34 -11 -36 -16 -2 -6 -12
-10 -23 -10 -15 0 -19 7 -19 35 0 24 -5 35 -15 35 -10 0 -15 -10 -15 -30 0
-23 -4 -30 -20 -30 -11 0 -20 7 -20 15 0 10 -11 15 -35 15 -19 0 -35 -4 -35
-10 0 -5 -9 -10 -20 -10 -13 0 -20 7 -20 20 0 11 -7 20 -15 20 -8 0 -15 -7
-15 -16 0 -12 -6 -15 -22 -11 -88 20 -88 20 -88 5 0 -19 -100 -34 -111 -17 -4
8 -18 8 -45 0 -51 -14 -54 -14 -54 4 0 8 -9 15 -20 15 -11 0 -20 -7 -20 -15 0
-8 -7 -15 -15 -15 -8 0 -15 7 -15 15 0 8 -7 15 -15 15 -12 0 -15 18 -15 99 l0
98 171 5 c116 3 197 0 252 -9 106 -18 271 -27 212 -12 -78 19 -181 38 -265 49
-47 6 -105 15 -130 20 -44 8 -44 8 15 6 33 -2 112 -10 175 -19 63 -9 169 -21
235 -28 66 -6 147 -15 180 -21 33 -5 79 -12 103 -15 32 -4 42 -10 42 -24 0
-12 7 -19 20 -19 13 0 20 -7 20 -20 0 -11 7 -20 15 -20 8 0 15 -9 15 -20 0
-13 7 -20 20 -20 15 0 20 -7 20 -25 0 -16 6 -25 15 -25 9 0 15 -9 15 -25 0
-18 5 -25 20 -25 11 0 20 -7 20 -15 0 -8 7 -15 15 -15 8 0 15 -4 15 -10 0 -5
9 -10 20 -10 11 0 20 -7 20 -15 0 -8 9 -15 20 -15 13 0 20 -7 20 -20 0 -11 7
-20 15 -20 8 0 15 -6 15 -14 0 -18 67 -30 110 -21 21 5 30 13 30 26 0 12 7 19
20 19 11 0 20 5 20 10 0 6 16 10 35 10 l35 0 0 -55 c0 -42 -3 -55 -15 -55 -8
0 -15 -4 -15 -10 0 -5 -9 -10 -20 -10 -11 0 -20 -7 -20 -15 0 -8 -9 -15 -20
-15 -17 0 -20 -7 -20 -40 l0 -40 40 0 c27 0 40 4 40 14 0 16 30 26 85 26 55 0
85 10 85 26 0 8 9 14 20 14 13 0 20 7 20 20 0 13 7 20 20 20 11 0 20 5 20 10
0 6 23 10 50 10 28 0 50 4 50 8 0 5 25 15 55 22 55 13 55 13 55 52 0 31 4 38
19 38 11 0 21 5 23 10 3 10 71 25 161 36 37 4 47 9 47 23 0 13 10 21 35 25 19
4 35 11 35 16 0 6 9 10 20 10 18 0 20 7 20 60 0 53 -2 60 -20 60 -16 0 -20 7
-20 35 0 28 4 35 20 35 11 0 20 7 20 15 0 17 11 18 88 9 34 -5 52 -11 52 -20
0 -8 9 -14 20 -14 11 0 20 -4 20 -10 0 -5 7 -10 15 -10 8 0 15 -4 15 -10 0 -5
9 -10 20 -10 15 0 20 7 20 25 0 16 6 25 15 25 8 0 15 6 15 14 0 11 19 16 73
20 39 3 167 12 282 21 289 22 283 21 438 23 116 2 137 0 137 -13z m-1610 -105
c0 -64 -3 -80 -15 -80 -10 0 -15 -10 -15 -30 0 -23 -4 -30 -20 -30 -13 0 -20
-7 -20 -19 0 -22 -61 -42 -68 -22 -2 6 -10 11 -18 11 -11 0 -14 20 -14 100 0
82 3 100 15 100 8 0 15 5 15 10 0 6 9 10 20 10 11 0 20 4 20 9 0 11 24 18 68
20 l32 1 0 -80z m-1677 63 c-7 -2 -19 -2 -25 0 -7 3 -2 5 12 5 14 0 19 -2 13
-5z m1427 -283 c0 -62 -3 -80 -14 -80 -8 0 -16 -5 -18 -11 -3 -8 -15 -9 -36
-4 l-32 7 0 69 c0 55 3 69 15 69 8 0 15 7 15 15 0 10 11 15 35 15 l35 0 0 -80z
m-250 -1125 c0 -78 -3 -95 -15 -95 -12 0 -15 17 -15 95 0 78 3 95 15 95 12 0
15 -17 15 -95z m80 -25 c0 -63 -2 -70 -20 -70 -18 0 -20 7 -20 70 0 63 2 70
20 70 18 0 20 -7 20 -70z m420 -45 c0 -16 -6 -25 -15 -25 -9 0 -15 9 -15 25 0
16 6 25 15 25 9 0 15 -9 15 -25z m80 0 c0 -18 -5 -25 -20 -25 -15 0 -20 7 -20
25 0 18 5 25 20 25 15 0 20 -7 20 -25z m70 -10 c0 -8 -9 -15 -20 -15 -11 0
-20 7 -20 15 0 8 9 15 20 15 11 0 20 -7 20 -15z"/>
<path d="M2570 2985 c0 -198 1 -205 20 -205 19 0 20 7 20 205 0 198 -1 205
-20 205 -19 0 -20 -7 -20 -205z"/>
<path d="M1570 2830 c0 -5 9 -10 20 -10 11 0 20 5 20 10 0 6 -9 10 -20 10 -11
0 -20 -4 -20 -10z"/>
<path d="M1040 2730 c0 -11 7 -20 15 -20 8 0 15 9 15 20 0 11 -7 20 -15 20 -8
0 -15 -9 -15 -20z"/>
<path d="M3430 2720 c0 -5 7 -10 15 -10 8 0 15 5 15 10 0 6 -7 10 -15 10 -8 0
-15 -4 -15 -10z"/>
<path d="M2890 2690 c0 -13 7 -20 20 -20 13 0 20 7 20 20 0 13 -7 20 -20 20
-13 0 -20 -7 -20 -20z"/>
<path d="M1040 2515 c0 -16 6 -25 15 -25 9 0 15 9 15 25 0 16 -6 25 -15 25 -9
0 -15 -9 -15 -25z"/>
<path d="M2930 2020 c0 -5 7 -10 15 -10 8 0 15 5 15 10 0 6 -7 10 -15 10 -8 0
-15 -4 -15 -10z"/>
<path d="M3110 2005 c0 -8 7 -15 15 -15 8 0 15 7 15 15 0 8 -7 15 -15 15 -8 0
-15 -7 -15 -15z"/>
<path d="M258 1983 c6 -2 18 -2 25 0 6 3 1 5 -13 5 -14 0 -19 -2 -12 -5z"/>
<path d="M2890 1970 c0 -13 7 -20 20 -20 13 0 20 7 20 20 0 13 -7 20 -20 20
-13 0 -20 -7 -20 -20z"/>
<path d="M798 1823 c7 -3 16 -2 19 1 4 3 -2 6 -13 5 -11 0 -14 -3 -6 -6z"/>
<path d="M718 1463 c6 -2 18 -2 25 0 6 3 1 5 -13 5 -14 0 -19 -2 -12 -5z"/>
<path d="M798 1453 c7 -3 16 -2 19 1 4 3 -2 6 -13 5 -11 0 -14 -3 -6 -6z"/>
<path d="M2890 1315 c0 -8 9 -15 20 -15 11 0 20 7 20 15 0 8 -9 15 -20 15 -11
0 -20 -7 -20 -15z"/>
<path d="M3110 1280 c0 -11 7 -20 15 -20 8 0 15 9 15 20 0 11 -7 20 -15 20 -8
0 -15 -9 -15 -20z"/>
<path d="M2938 1263 c7 -3 16 -2 19 1 4 3 -2 6 -13 5 -11 0 -14 -3 -6 -6z"/>
<path d="M3348 1003 c18 -2 45 -2 60 0 15 2 0 4 -33 4 -33 0 -45 -2 -27 -4z"/>
<path d="M3360 980 c0 -5 7 -10 15 -10 8 0 15 5 15 10 0 6 -7 10 -15 10 -8 0
-15 -4 -15 -10z"/>
<path d="M1040 765 c0 -16 6 -25 15 -25 9 0 15 9 15 25 0 16 -6 25 -15 25 -9
0 -15 -9 -15 -25z"/>
<path d="M2890 590 c0 -13 7 -20 20 -20 13 0 20 7 20 20 0 13 -7 20 -20 20
-13 0 -20 -7 -20 -20z"/>
<path d="M1040 550 c0 -11 7 -20 15 -20 8 0 15 9 15 20 0 11 -7 20 -15 20 -8
0 -15 -9 -15 -20z"/>
<path d="M3430 560 c0 -5 7 -10 15 -10 8 0 15 5 15 10 0 6 -7 10 -15 10 -8 0
-15 -4 -15 -10z"/>
<path d="M2570 295 c0 -198 1 -205 20 -205 19 0 20 7 20 205 0 198 -1 205 -20
205 -19 0 -20 -7 -20 -205z"/>
<path d="M1570 450 c0 -5 9 -10 20 -10 11 0 20 5 20 10 0 6 -9 10 -20 10 -11
0 -20 -4 -20 -10z"/>
</g>
</svg>
