<?xml version="1.0" standalone="no"?>
<!DOCTYPE svg PUBLIC "-//W3C//DTD SVG 20010904//EN"
 "http://www.w3.org/TR/2001/REC-SVG-20010904/DTD/svg10.dtd">
<svg version="1.0" xmlns="http://www.w3.org/2000/svg"
 width="179.000000pt" height="164.000000pt" viewBox="0 0 179.000000 164.000000"
 preserveAspectRatio="xMidYMid meet">

<g transform="translate(0.000000,164.000000) scale(0.100000,-0.100000)"
fill="#000000" stroke="none">
<path d="M1 1293 c0 -239 4 -330 11 -310 5 15 14 24 19 21 6 -3 47 -6 92 -6
45 -1 88 -6 95 -11 8 -6 12 -6 12 0 0 16 64 10 77 -7 11 -13 12 -12 13 8 0 19
4 22 20 17 11 -3 25 -3 32 1 13 8 41 14 70 15 10 0 20 4 23 9 3 5 11 8 18 6 7
-1 9 -1 5 1 -12 7 -9 31 5 36 9 4 9 6 0 6 -17 1 -17 78 -1 84 10 4 10 6 1 6
-9 1 -13 22 -13 71 0 63 2 70 20 70 26 0 26 27 0 35 -26 8 -27 45 -1 45 10 0
21 7 25 15 3 8 12 15 20 15 8 0 18 9 21 21 4 12 12 18 21 15 9 -3 16 4 21 21
5 23 7 24 13 9 9 -28 24 -24 31 9 l7 30 1 -32 c2 -49 21 -40 22 10 1 24 3 31
6 17 2 -14 6 -36 9 -50 5 -24 6 -24 20 -6 8 11 14 14 14 7 0 -13 24 -41 34
-41 3 0 6 19 7 43 l1 42 10 -45 c9 -37 12 -41 19 -25 12 31 10 101 -3 145 -15
47 -28 52 -28 10 0 -16 -4 -30 -10 -30 -5 0 -10 14 -10 30 0 49 -19 34 -23
-17 l-3 -48 -2 48 -2 47 -360 0 -360 0 1 -337z"/>
<path d="M820 1550 c0 -47 4 -80 10 -80 6 0 10 33 10 80 0 47 -4 80 -10 80 -6
0 -10 -33 -10 -80z"/>
<path d="M860 1628 c-10 -87 -10 -149 -2 -164 10 -17 11 -17 12 6 0 14 2 55 5
93 2 38 0 67 -6 67 -5 0 -9 -1 -9 -2z"/>
<path d="M896 1593 c-8 -52 -6 -114 4 -138 6 -13 9 14 9 78 1 53 -1 97 -3 97
-2 0 -6 -17 -10 -37z"/>
<path d="M937 1623 c-4 -3 -7 -40 -6 -82 1 -76 15 -70 19 9 2 33 3 33 10 10 4
-14 8 -40 9 -58 1 -30 3 -32 16 -18 8 8 15 19 15 25 0 6 5 11 10 11 6 0 10
-23 10 -51 0 -52 19 -62 21 -11 l1 27 9 -27 c11 -29 39 -29 39 0 0 13 2 13 13
-2 12 -17 14 -17 20 -2 10 25 25 19 30 -11 l4 -28 2 28 c0 15 6 27 11 27 6 0
10 -12 11 -27 0 -16 3 -21 6 -13 14 43 16 44 29 5 l12 -40 1 38 c1 37 21 54
21 17 0 -11 5 -20 10 -20 16 0 12 109 -4 126 -20 19 -26 18 -27 -8 -1 -17 -4
-14 -11 12 l-11 35 -13 -30 -13 -30 -1 28 c0 22 -5 27 -24 27 -16 0 -27 7 -31
21 -6 17 -9 19 -16 8 -7 -11 -11 -11 -17 -1 -10 14 -64 13 -74 -3 -5 -6 -11
-5 -18 5 -9 13 -11 13 -20 0 -6 -10 -10 -11 -10 -2 0 13 -22 17 -33 5z"/>
<path d="M1350 1620 c0 -5 8 -23 19 -40 l18 -31 7 32 c9 47 8 49 -19 49 -14 0
-25 -4 -25 -10z"/>
<path d="M1553 1613 c-4 -10 -11 -21 -16 -25 -6 -3 -11 -35 -11 -70 -1 -54 3
-69 24 -95 28 -36 42 -40 61 -17 16 19 53 35 94 39 17 1 40 6 52 10 19 6 22 3
26 -32 2 -21 4 17 5 85 l2 122 -115 0 c-101 0 -116 -2 -122 -17z"/>
<path d="M1287 1577 c-9 -23 -7 -134 2 -167 7 -23 8 -21 14 15 8 49 7 111 -2
145 -6 22 -8 23 -14 7z"/>
<path d="M890 1319 c-13 -6 -35 -7 -48 -4 -27 7 -62 -2 -62 -15 0 -17 103 -70
126 -64 13 4 31 -3 51 -20 39 -33 103 -44 126 -22 25 25 36 19 39 -21 3 -35 5
-38 32 -36 17 1 35 -2 42 -8 23 -19 107 -18 135 2 22 15 32 16 64 8 25 -7 52
-7 84 0 71 15 201 22 201 11 0 -6 5 -10 11 -10 5 0 7 5 4 10 -4 6 11 10 39 10
34 0 46 -4 49 -17 3 -10 5 18 4 62 0 44 -2 67 -4 52 l-4 -29 -117 6 c-178 9
-231 14 -302 24 -39 6 -71 7 -82 1 -28 -15 -44 -11 -79 22 -59 55 -70 57 -151
22 -33 -14 -40 -14 -60 -1 -33 21 -69 28 -98 17z"/>
<path d="M520 1254 c0 -8 5 -12 10 -9 6 3 10 10 10 16 0 5 -4 9 -10 9 -5 0
-10 -7 -10 -16z"/>
<path d="M1703 1243 c15 -2 37 -2 50 0 12 2 0 4 -28 4 -27 0 -38 -2 -22 -4z"/>
<path d="M730 1164 c0 -9 11 -26 24 -38 13 -11 26 -30 28 -41 4 -27 -27 -31
-49 -6 -23 27 -49 26 -76 -2 -12 -13 -37 -32 -54 -42 -18 -11 -33 -25 -33 -32
0 -8 -20 -33 -43 -57 -47 -47 -42 -45 -235 -67 -122 -13 -146 -7 -36 10 43 6
80 14 83 18 3 3 -11 3 -31 -1 -41 -7 -227 -25 -270 -26 -17 0 -28 6 -31 18 -3
9 -5 -26 -6 -78 0 -52 3 -90 7 -83 9 14 130 20 227 11 81 -8 67 -2 -42 17 -85
16 -49 13 149 -10 117 -14 178 -29 178 -44 0 -3 11 -19 25 -35 14 -16 25 -35
25 -42 0 -7 9 -15 20 -19 11 -3 32 -19 47 -34 38 -37 67 -43 95 -20 12 11 29
18 37 16 22 -4 14 -38 -15 -63 -29 -26 -32 -54 -5 -54 11 0 23 5 26 10 3 6 19
10 34 10 15 0 42 11 61 25 19 14 41 25 50 25 36 0 80 22 80 40 0 18 44 40 79
40 9 0 35 10 59 22 34 19 42 28 42 50 0 16 -4 28 -10 28 -15 0 -12 19 4 36 19
19 43 17 85 -5 34 -18 35 -18 50 0 12 14 36 19 96 24 44 3 127 10 185 15 156
14 193 13 187 -5 -4 -8 -2 -17 3 -20 6 -4 10 20 10 59 0 36 -4 66 -10 66 -5 0
-7 -7 -4 -15 8 -19 -2 -19 -251 1 -166 14 -203 20 -216 34 -11 13 -20 15 -30
9 -8 -5 -31 -14 -52 -19 -30 -9 -40 -8 -52 4 -17 17 -20 36 -5 36 6 0 10 16
10 35 0 27 -4 35 -17 35 -10 0 -27 7 -37 15 -11 8 -30 15 -41 15 -40 0 -85 21
-85 40 0 18 -44 40 -80 40 -9 0 -31 11 -50 25 -19 14 -46 25 -61 25 -15 0 -31
5 -34 10 -10 16 -45 12 -45 -6z m118 -106 c7 -7 12 -25 12 -40 0 -21 -5 -28
-20 -28 -21 0 -40 27 -40 59 0 24 28 29 48 9z m88 -56 c23 -16 44 -58 44 -89
0 -29 -3 -33 -25 -33 -14 0 -34 9 -45 20 -39 39 -16 131 26 102z m188 -113
c22 -17 26 -28 26 -69 0 -41 -4 -52 -26 -69 -31 -24 -45 -26 -91 -9 -33 12
-33 12 -33 78 0 63 1 67 28 77 42 17 67 15 96 -8z m-254 -64 c0 -12 -7 -28
-15 -35 -12 -10 -15 -10 -15 3 0 8 -6 18 -12 21 -10 5 -10 7 0 12 6 3 12 12
12 20 0 8 6 11 15 8 8 -4 15 -16 15 -29z m110 -100 c0 -24 -9 -44 -29 -67 -25
-28 -31 -30 -45 -19 -40 34 -5 121 49 121 22 0 25 -4 25 -35z m-120 -103 c0
-32 -16 -52 -42 -52 -12 0 -18 7 -18 21 0 32 19 59 40 59 15 0 20 -7 20 -28z"/>
<path d="M1782 1015 c0 -16 2 -22 5 -12 2 9 2 23 0 30 -3 6 -5 -1 -5 -18z"/>
<path d="M1555 1000 c3 -5 8 -10 11 -10 2 0 4 5 4 10 0 6 -5 10 -11 10 -5 0
-7 -4 -4 -10z"/>
<path d="M1688 873 c6 -2 18 -2 25 0 6 3 1 5 -13 5 -14 0 -19 -2 -12 -5z"/>
<path d="M1688 763 c6 -2 18 -2 25 0 6 3 1 5 -13 5 -14 0 -19 -2 -12 -5z"/>
<path d="M1 343 l-1 -343 895 0 895 0 -2 133 c-1 72 -3 112 -5 88 -4 -39 -6
-42 -26 -36 -12 4 -34 8 -48 10 -30 2 -95 31 -104 45 -11 18 -30 9 -58 -28
-26 -33 -28 -43 -24 -90 3 -29 10 -59 15 -65 5 -7 12 -20 15 -29 6 -16 -2 -18
-72 -18 l-78 0 -7 43 -7 42 -26 -43 -25 -42 -110 0 c-96 0 -109 2 -104 16 3 9
6 20 6 25 0 6 4 8 9 5 17 -11 41 6 41 28 1 17 3 16 14 -9 l13 -30 11 35 c7 26
10 29 11 13 1 -25 21 -32 21 -8 0 8 5 15 10 15 6 0 10 25 10 55 0 30 -4 55
-10 55 -5 0 -10 -9 -10 -20 0 -37 -20 -20 -21 18 l-1 37 -12 -40 c-13 -39 -15
-38 -29 5 -3 8 -6 3 -6 -12 -1 -16 -5 -28 -11 -28 -5 0 -10 12 -11 28 0 15 -3
20 -6 12 -2 -8 -7 -22 -10 -30 -4 -13 -7 -12 -18 3 -13 18 -14 18 -24 0 -9
-16 -10 -16 -11 -2 0 30 -28 30 -39 1 l-9 -27 -1 27 c-2 51 -21 41 -21 -11 0
-28 -4 -51 -10 -51 -5 0 -10 5 -10 11 0 6 -7 17 -15 25 -13 14 -15 12 -16 -18
-1 -18 -5 -44 -9 -58 -7 -23 -8 -23 -10 10 -5 81 -19 83 -17 2 1 -60 -1 -82
-10 -82 -10 0 -13 26 -13 98 -1 76 -3 93 -12 78 -7 -12 -9 -47 -5 -98 4 -43 3
-78 -2 -78 -11 0 -21 60 -21 130 -1 45 -3 51 -12 36 -6 -12 -8 -46 -5 -92 4
-45 3 -74 -3 -74 -6 0 -10 37 -10 85 0 50 -4 85 -10 85 -6 0 -10 -35 -10 -85
0 -72 -3 -85 -16 -85 -13 0 -15 6 -9 27 13 51 17 128 7 153 -9 24 -10 23 -20
-20 l-10 -45 -1 43 c-1 23 -4 42 -7 42 -10 0 -34 -28 -34 -41 0 -7 -6 -4 -14
7 -17 22 -23 13 -29 -46 -4 -33 -4 -32 -5 8 -2 49 -21 57 -23 10 l-1 -33 -7
30 c-7 33 -22 37 -31 9 -6 -15 -8 -14 -13 9 -5 17 -12 24 -21 21 -9 -3 -17 3
-21 15 -3 12 -13 21 -21 21 -8 0 -17 7 -20 15 -4 8 -15 15 -25 15 -26 0 -25
37 1 45 11 3 20 13 20 21 0 8 -9 14 -20 14 -18 0 -20 7 -20 69 0 46 4 71 13
74 9 4 9 6 0 6 -17 1 -17 78 0 84 9 4 9 6 0 6 -14 1 -18 27 -5 34 4 2 2 2 -5
1 -6 -2 -14 4 -18 13 -4 12 -9 13 -17 5 -8 -8 -17 -8 -30 -1 -10 5 -23 7 -28
4 -6 -4 -13 1 -16 9 -5 12 -11 13 -24 6 -27 -14 -30 -13 -30 13 -1 19 -2 20
-13 7 -13 -16 -77 -23 -77 -8 0 5 -6 6 -12 1 -7 -4 -49 -8 -94 -9 -44 0 -85
-4 -91 -7 -7 -4 -15 4 -21 20 -7 20 -11 -72 -11 -314z m726 -310 c-2 -16 -4
-5 -4 22 0 28 2 40 4 28 2 -13 2 -35 0 -50z m43 7 c0 -17 -4 -30 -10 -30 -5 0
-10 13 -10 30 0 17 5 30 10 30 6 0 10 -13 10 -30z m250 -20 c0 -5 -4 -10 -10
-10 -5 0 -10 5 -10 10 0 6 5 10 10 10 6 0 10 -4 10 -10z m90 0 c0 -5 -4 -10
-10 -10 -5 0 -10 5 -10 10 0 6 5 10 10 10 6 0 10 -4 10 -10z"/>
<path d="M1550 640 c0 -5 5 -10 10 -10 6 0 10 5 10 10 0 6 -4 10 -10 10 -5 0
-10 -4 -10 -10z"/>
<path d="M1782 625 c0 -16 2 -22 5 -12 2 9 2 23 0 30 -3 6 -5 -1 -5 -18z"/>
<path d="M1200 515 c-7 -9 -26 -14 -44 -12 -29 2 -31 0 -34 -35 -3 -41 -14
-47 -39 -22 -22 21 -84 11 -127 -20 -17 -13 -45 -23 -61 -23 -30 0 -115 -47
-115 -64 0 -5 8 -10 18 -10 145 -12 159 -11 187 7 24 15 29 15 63 1 81 -35 95
-33 150 23 32 31 51 36 80 21 11 -6 43 -5 82 1 36 5 88 11 115 13 28 2 93 8
146 13 129 12 157 7 162 -27 2 -14 4 10 4 54 1 44 -1 72 -4 63 -3 -14 -15 -18
-49 -18 -28 0 -44 4 -44 13 0 9 -3 8 -9 -2 -6 -10 -19 -12 -47 -6 -59 11 -162
19 -227 17 -32 -1 -68 3 -80 10 -34 18 -113 20 -127 3z"/>
<path d="M520 384 c0 -8 5 -12 10 -9 6 4 8 11 5 16 -9 14 -15 11 -15 -7z"/>
<path d="M1703 393 c9 -2 25 -2 35 0 9 3 1 5 -18 5 -19 0 -27 -2 -17 -5z"/>
<path d="M1287 230 c-9 -35 -8 -152 2 -168 18 -29 27 96 12 163 l-7 30 -7 -25z"/>
</g>
</svg>
